<svg viewBox="0 0" xmlns="http://www.w3.org/2000/svg" xmlns:bx="https://boxy-svg.com">
  <g fill="#4f5169" style="" transform="matrix(0.416575, 0, 0, 0.416678, 2.336071, 2.33192)">
    <g xmlns="http://www.w3.org/2000/svg">
      <g>
        <g>
          <g>
            <path d="M102.9,50c-4.5-1-9-1.5-13.6-1.5c-2.2,0-4.4,0.1-6.6,0.4c-0.9-2.2-2.9-3.7-5.3-4C75.9,37.2,73.2,29.8,69,23      C84.7,24.9,97.7,35.6,102.9,50z"></path>
          </g>
          <g>
            <path d="M105.3,64c0,4.2-0.6,8.3-1.8,12.2C98.5,66.9,91.4,59,82.8,53.3c0.1-0.4,0.2-0.8,0.2-1.2c2-0.2,4.1-0.3,6.2-0.3      c5,0,10,0.6,14.8,1.8C104.8,56.9,105.3,60.4,105.3,64z"></path>
          </g>
          <g>
            <path d="M98.6,86.5c-5.3,1.5-10.7,2.2-16.2,2.2c-2.6,0-5.1-0.2-7.6-0.5c0-0.2,0-0.4,0-0.5c0-2-0.9-3.7-2.3-4.9      c3.6-7.8,5.6-16.4,5.8-25.3c1.1-0.3,2-0.8,2.8-1.5c8.9,6,16.2,14.4,20.8,24.3C101,82.5,99.9,84.6,98.6,86.5z"></path>
          </g>
          <g>
            <path d="M46.5,77c0.2-0.7,0.4-1.4,0.4-2.1c0-1.6-0.6-3.1-1.6-4.2c7.1-7.5,16-13.1,25.9-16.1c0.8,1.5,2.2,2.5,3.9,3      C74.9,66,73,74.1,69.6,81.4c-0.4-0.1-0.8-0.1-1.2-0.1c-2.7,0-5,1.7-6,4.1C56.7,83.4,51.3,80.6,46.5,77z"></path>
          </g>
          <g>
            <path d="M70.3,51.4c-10.6,3.3-20.2,9.3-27.7,17.4c-0.7-0.2-1.4-0.4-2.2-0.4c-1,0-1.9,0.2-2.7,0.6c-5.1-5.6-9.2-12.2-12-19.5      c10.7-4.1,22.3-5,33.7-2.7c3.8,0.8,7.4,1.9,10.9,3.4c-0.1,0.4-0.1,0.7-0.1,1.1C70.3,51.4,70.3,51.4,70.3,51.4z"></path>
          </g>
          <g>
            <path d="M64,22.7c0.3,0,0.7,0,1,0c4.6,6.9,7.7,14.6,9.1,22.7c-0.9,0.4-1.8,1-2.4,1.8c-3.7-1.6-7.6-2.8-11.6-3.6      c-11.1-2.3-22.5-1.6-33.1,2C33.8,32.1,47.8,22.7,64,22.7z"></path>
          </g>
          <g>
            <path d="M24,53.8c2.8,6.5,6.6,12.3,11.2,17.4c-0.8,1.1-1.2,2.3-1.2,3.7c0,1.4,0.4,2.6,1.2,3.7c-1.8,3-3.4,6.1-4.8,9.4      c-4.8-6.8-7.7-15-7.7-23.9C22.7,60.5,23.1,57,24,53.8z"></path>
          </g>
          <g>
            <path d="M32.7,90.9c1.4-3.6,3-7,5-10.2c0.8,0.4,1.8,0.6,2.8,0.6c1.6,0,3.1-0.6,4.3-1.6c5.2,3.8,11.1,6.9,17.3,9      c0.2,1.2,0.7,2.3,1.4,3.2c-3.2,4.3-7,8.3-11.3,11.7C44.5,101.3,37.7,96.8,32.7,90.9z"></path>
          </g>
          <g>
            <path d="M64,105.3c-2.7,0-5.4-0.3-8-0.8c3.8-3.2,7.2-6.9,10.1-10.8c0.7,0.3,1.5,0.4,2.3,0.4c2.2,0,4.1-1.1,5.3-2.8      c2.9,0.4,5.8,0.6,8.7,0.6c4.5,0,8.9-0.5,13.2-1.4C88,99.6,76.6,105.3,64,105.3z"></path>
          </g>
        </g>
      </g>
      <path d="M64.2,124c-2.6,0-5.2-0.2-7.8-0.5c-6.1-0.8-11.9-2.5-17.4-5c-2.2,0.7-4.2,1.2-6.3,1.6l-0.1,0c-0.9,0.2-1.6,0.2-2.3,0.3   l-1,0.1c-3.9,0.5-8.4,0.5-13.3-0.1l-0.5-0.1c-5.7-0.8-9-2.9-10.3-6.5l0-0.1c-1-3-0.2-6.1,2.2-8.5l7.2-7.4C6.2,85.6,2.6,71,4.5,56.3   c1.4-10.9,5.7-21.1,12.6-29.7C30.3,10.1,50.8,1.8,71.7,4.5c7.9,1,15.3,3.5,22.2,7.4c6.8,3.9,12.7,9.1,17.6,15.4   c9.8,12.7,14.1,28.4,12,44.3c-1.4,10.9-5.7,21.1-12.6,29.7C99.3,115.8,82.3,124,64.2,124z M39.4,107.8l3.1,1.3   c4.7,2.3,9.8,3.8,15.1,4.5c17.5,2.3,34.5-4.6,45.5-18.5c5.7-7.1,9.3-15.7,10.5-24.7c1.7-13.2-1.8-26.4-10-36.9l0,0   c-4.1-5.3-9-9.6-14.7-12.9c-5.7-3.3-11.9-5.4-18.5-6.2C53,12.1,35.9,19.1,24.9,32.9c-5.7,7.1-9.3,15.7-10.5,24.7   C12.8,70.3,16,83,23.5,93.3l3.6,5l-4,4.8c-0.4,0.5-0.9,1-1.6,1.6l-5.5,5.7c0.2,0,0.4,0.1,0.6,0.1l0.4,0.1c4,0.5,7.6,0.6,10.7,0.1   l1.1-0.1c0.6-0.1,1.2-0.1,1.8-0.2c2-0.4,3.9-0.9,5.9-1.5L39.4,107.8z"></path>
    </g>
  </g>
</svg>